<?xml version="1.0" encoding="UTF-8"?>
<svg xmlns="http://www.w3.org/2000/svg" version="1.1" viewBox="0 0 243.5 96.9">
  <defs>
    <style>
      .cls-1, .cls-2 {
        fill: #fff;
      }

      .cls-2 {
        fill-rule: evenodd;
      }
    </style>
  </defs>
  <!-- Generator: Adobe Illustrator 28.6.0, SVG Export Plug-In . SVG Version: 1.2.0 Build 709)  -->
  <g>
    <g id="Layer_1">
      <g>
        <path class="cls-1" d="M109,82.7h2.6l4.2,6.6,4.2-6.6h2.6v13.9h-2.4v-10l-4.4,6.6h0l-4.3-6.5v9.9h-2.4v-13.9Z"/>
        <path class="cls-1" d="M125.2,93.6h0c0-2.3,1.8-3.4,4.3-3.4s2,.2,2.8.4v-.3c0-1.5-.9-2.3-2.6-2.3s-2.1.3-3,.7l-.7-1.9c1.2-.5,2.3-.8,4-.8s2.7.4,3.5,1.2c.8.8,1.1,1.9,1.1,3.2v6.2h-2.3v-1.3c-.7.8-1.8,1.5-3.4,1.5s-3.7-1.1-3.7-3.2h0ZM132.4,92.9v-.7c-.6-.2-1.4-.4-2.4-.4-1.6,0-2.5.6-2.5,1.8h0c0,1.1.9,1.6,2,1.6s2.8-.9,2.8-2.2h0Z"/>
        <path class="cls-1" d="M137.6,82.1h2.4v8.7l4.4-4.7h2.9l-4.2,4.3,4.3,6.2h-2.8l-3.1-4.6-1.5,1.6v3h-2.4v-14.5h0Z"/>
        <path class="cls-1" d="M148,91.4h0c0-3.1,2.1-5.5,5.1-5.5s5,2.6,5,5.6,0,.4,0,.7h-7.7c.3,1.7,1.4,2.7,3,2.7s2-.4,2.8-1.2l1.4,1.2c-1,1.2-2.4,2-4.3,2-3,0-5.4-2.2-5.4-5.4h0ZM155.8,90.7c-.2-1.5-1.1-2.8-2.7-2.8s-2.5,1.1-2.7,2.8h5.4,0Z"/>
        <path class="cls-1" d="M166.6,82.1h2.4v14.5h-2.4v-14.5Z"/>
        <path class="cls-1" d="M172.2,82.3h2.6v2.3h-2.6v-2.3ZM172.2,86.1h2.4v10.5h-2.4v-10.5Z"/>
        <path class="cls-1" d="M178.3,88.2h-1.3v-2h1.3v-.8c0-1.2.3-2,.9-2.6.6-.6,1.3-.8,2.4-.8s1.4.1,2,.3v2c-.5-.2-.9-.3-1.4-.3-.9,0-1.4.5-1.4,1.6v.6h2.8v2h-2.7v8.4h-2.4v-8.4h0Z"/>
        <path class="cls-1" d="M184.4,91.4h0c0-3.1,2.1-5.5,5.1-5.5s5,2.6,5,5.6,0,.4,0,.7h-7.7c.3,1.7,1.4,2.7,3,2.7s2-.4,2.8-1.2l1.4,1.2c-1,1.2-2.4,2-4.3,2-3,0-5.4-2.2-5.4-5.4h0ZM192.2,90.7c-.2-1.5-1.1-2.8-2.7-2.8s-2.5,1.1-2.7,2.8h5.4,0Z"/>
        <path class="cls-1" d="M203.4,88.2h-1.3v-2h1.3v-.8c0-1.2.3-2,.9-2.6.6-.6,1.3-.8,2.3-.8s1.4.1,2,.3v2c-.5-.2-.9-.3-1.4-.3-.9,0-1.4.5-1.4,1.6v.6h2.8v2h-2.7v8.4h-2.4v-8.4h0ZM210.5,82.1h2.4v14.5h-2.4v-14.5Z"/>
        <path class="cls-1" d="M215.4,91.5h0c0-3,2.4-5.5,5.6-5.5s5.6,2.4,5.6,5.4h0c0,3-2.4,5.5-5.6,5.5s-5.6-2.4-5.6-5.4h0ZM224.2,91.5h0c0-1.9-1.3-3.4-3.2-3.4s-3.2,1.5-3.2,3.3h0c0,1.9,1.4,3.4,3.2,3.4s3.2-1.5,3.2-3.3h0Z"/>
        <path class="cls-1" d="M227.6,86.2h2.5l2.1,7.2,2.3-7.2h2.1l2.3,7.2,2.1-7.2h2.4l-3.4,10.6h-2.2l-2.4-7.2-2.4,7.2h-2.1l-3.4-10.6Z"/>
      </g>
      <g>
        <path class="cls-1" d="M60.1,19.1c-1.9-5.1-4.6-9.1-8.1-12.4-2.8-2.5-6.2-4.6-9.9-5.4C36.8-.1,30.8,0,30.8,0H0v76h29.8c4.8,0,16.9-3.1,23.1-9.6,6.7-6.8,10-16.8,10-30.1s-1.1-12-2.8-17.1ZM40.7,61.8c-2.6,3.2-5.8,5.8-9.9,6.9-2.8,1-6,1.3-9.3,1.3s-5.5-.3-6.7-.7V6.5c.7-.2,6.2-.3,6.7-.3,3.5,0,6.5.5,9.3,1.2,4.4,1,7.8,3.2,10.2,6.3,4,4.7,6,12.7,6,23.7s-2.1,19.1-6.3,24.5h0Z"/>
        <path class="cls-1" d="M122.1,64.8c-2.3-2-4.1-4.9-4.8-8.8h-1.2l-2.5,12.2c3.3-.7,6.7-1.5,9.9-2.2-.5-.3-.9-.7-1.4-1.2Z"/>
        <path class="cls-1" d="M153.3,52c0-3-.5-5.6-1.4-8.1-1.9-6.3-6.3-9.3-13.2-13-1.6-1-3.2-1.9-4.1-2.4-4.2-2.7-7.1-4.7-8.3-6.3-1.2-1.9-1.9-3.7-1.9-6.1s.9-5.2,2.6-6.9c1.6-1.7,3.7-2.5,6.5-2.5s5.6.8,7.8,2.7c2.3,1.9,3.9,4.2,4.8,7.4h1.1c.2-.9,2.5-9.1,3-11.7-2.1-1.7-4.4-3-6.9-3.7-2.5-.9-5.1-1.4-7.9-1.4-6.7,0-12,2-16,6.1-4.1,4.1-6,9.3-6,15.7s1.2,8.8,3.3,12c2.1,3.2,6.9,6.9,14.1,11.5,4.6,2.9,7.6,5.8,8.8,7.1,1.2,1.7,1.8,3.5,1.8,5.6s-.2,2.7-.5,3.7c3.9-.8,7.8-1.9,11.6-2.5.5-2.4.9-4.7.9-7.3h0Z"/>
        <g>
          <path class="cls-2" d="M243.5,0h-14.9v60.5c7.1,3,11.9,6.5,14.9,9.2V0Z"/>
          <path class="cls-2" d="M168.2,32.7l8,22.1c5.2-.7,10.3-1,15.1-1,1.9,0,3.8,0,5.6.1l9.4-27.3v28.1c4.2.5,8.1,1.3,11.6,2.2V0h-12.2l-16.2,49.4L172,0h-11.6v57.4c2.6-.5,5.2-1,7.7-1.4v-23.3h0Z"/>
        </g>
        <path class="cls-2" d="M105.4,66.5c-4,.5-7.9.8-11.4,1.1-3.7.2-7.3.5-10.4.5-.2-1.3,0-28.5,0-28.5,2.3,0,15.7.6,21.4,1v-9.5c-2.5.2-19.4.8-21.4,1,0,0,0-22.9,0-24.3,2.7.2,6,.2,9.5.6,3.5.2,7.6.5,12.3.8V0h-36.5v75.9c12.3-1.2,24.5-3.3,36.5-5.8v-3.6s0,0,0,0Z"/>
      </g>
    </g>
  </g>
</svg>